<svg width="12" height="11" viewBox="0 0 12 11" fill="none" xmlns="http://www.w3.org/2000/svg">
<path fill-rule="evenodd" clip-rule="evenodd" d="M6.2183 0.220316C6.28796 0.150479 6.37072 0.0950703 6.46182 0.0572648C6.55293 0.0194594 6.6506 0 6.74924 0C6.84788 0 6.94555 0.0194594 7.03666 0.0572648C7.12777 0.0950703 7.21052 0.150479 7.28018 0.220316L11.7797 4.71981C11.8495 4.78947 11.9049 4.87223 11.9427 4.96334C11.9805 5.05444 12 5.15211 12 5.25075C12 5.34939 11.9805 5.44706 11.9427 5.53817C11.9049 5.62928 11.8495 5.71203 11.7797 5.78169L7.28018 10.2812C7.13937 10.422 6.94838 10.5011 6.74924 10.5011C6.5501 10.5011 6.35912 10.422 6.2183 10.2812C6.07749 10.1404 5.99838 9.94939 5.99838 9.75025C5.99838 9.55111 6.07749 9.36012 6.2183 9.21931L10.1884 5.25075L6.2183 1.2822C6.14846 1.21254 6.09306 1.12978 6.05525 1.03867C6.01745 0.947567 5.99799 0.849896 5.99799 0.751256C5.99799 0.652617 6.01745 0.554946 6.05525 0.463838C6.09306 0.37273 6.14846 0.289976 6.2183 0.220316Z" fill="#3b82f6"/>
<path fill-rule="evenodd" clip-rule="evenodd" d="M0 5.25065C0 5.05176 0.079009 4.86101 0.219646 4.72038C0.360282 4.57974 0.551026 4.50073 0.749916 4.50073H10.4988C10.6977 4.50073 10.8885 4.57974 11.0291 4.72038C11.1697 4.86101 11.2487 5.05176 11.2487 5.25065C11.2487 5.44954 11.1697 5.64028 11.0291 5.78092C10.8885 5.92156 10.6977 6.00056 10.4988 6.00056H0.749916C0.551026 6.00056 0.360282 5.92156 0.219646 5.78092C0.079009 5.64028 0 5.44954 0 5.25065Z" fill="#3b82f6"/>
</svg>
