<svg width="16" height="13" viewBox="0 0 16 13" fill="none" xmlns="http://www.w3.org/2000/svg">
<path d="M14.25 3.16667L7.91667 7.125L1.58333 3.16667V1.58333L7.91667 5.54167L14.25 1.58333V3.16667ZM14.25 0H1.58333C0.704583 0 0 0.704583 0 1.58333V11.0833C0 11.5033 0.166815 11.906 0.463748 12.2029C0.76068 12.4999 1.16341 12.6667 1.58333 12.6667H14.25C14.6699 12.6667 15.0727 12.4999 15.3696 12.2029C15.6665 11.906 15.8333 11.5033 15.8333 11.0833V1.58333C15.8333 1.16341 15.6665 0.76068 15.3696 0.463748C15.0727 0.166815 14.6699 0 14.25 0Z" fill="#4C4C4C"/>
</svg>
