<svg width="13" height="12" viewBox="0 0 13 12" fill="none" xmlns="http://www.w3.org/2000/svg">
<path d="M3.1375 4.86875C4.0375 6.6375 5.4875 8.0875 7.25625 8.9875L8.63125 7.6125C8.80625 7.4375 9.05 7.3875 9.26875 7.45625C9.96875 7.6875 10.7188 7.8125 11.5 7.8125C11.6658 7.8125 11.8247 7.87835 11.9419 7.99556C12.0592 8.11277 12.125 8.27174 12.125 8.4375V10.625C12.125 10.7908 12.0592 10.9497 11.9419 11.0669C11.8247 11.1842 11.6658 11.25 11.5 11.25C8.68207 11.25 5.97956 10.1306 3.98699 8.13801C1.99442 6.14544 0.875 3.44293 0.875 0.625C0.875 0.45924 0.940848 0.300268 1.05806 0.183058C1.17527 0.065848 1.33424 0 1.5 0H3.6875C3.85326 0 4.01223 0.065848 4.12944 0.183058C4.24665 0.300268 4.3125 0.45924 4.3125 0.625C4.3125 1.40625 4.4375 2.15625 4.66875 2.85625C4.7375 3.075 4.6875 3.31875 4.5125 3.49375L3.1375 4.86875Z" fill="#4C4C4C"/>
</svg>
