<svg width="168" height="23" viewBox="0 0 168 23" fill="none" xmlns="http://www.w3.org/2000/svg">
<path d="M23.2243 8.07035L16.0296 7.02472L12.8133 0.504407C12.7255 0.325885 12.581 0.181367 12.4024 0.0935222C11.9547 -0.127505 11.4106 0.0566843 11.1868 0.504407L7.97055 7.02472L0.77582 8.07035C0.577461 8.09869 0.396105 8.1922 0.257255 8.33389C0.0893918 8.50642 -0.0031083 8.73854 7.97568e-05 8.97924C0.00326781 9.21993 0.101883 9.44952 0.274257 9.61755L5.47974 14.6927L4.24992 21.8591C4.22108 22.0258 4.23953 22.1972 4.30317 22.354C4.36681 22.5107 4.47311 22.6465 4.60999 22.746C4.74688 22.8454 4.90889 22.9045 5.07764 22.9165C5.24639 22.9285 5.41514 22.893 5.56475 22.814L12.0001 19.4306L18.4354 22.814C18.6111 22.9075 18.8151 22.9387 19.0106 22.9047C19.5037 22.8197 19.8352 22.3521 19.7502 21.8591L18.5204 14.6927L23.7259 9.61755C23.8675 9.4787 23.9611 9.29734 23.9894 9.09898C24.0659 8.60309 23.7202 8.14403 23.2243 8.07035Z" fill="#FFD700"/>
<path d="M59.2243 8.07035L52.0296 7.02472L48.8133 0.504407C48.7255 0.325885 48.581 0.181367 48.4024 0.0935222C47.9547 -0.127505 47.4106 0.0566843 47.1868 0.504407L43.9706 7.02472L36.7758 8.07035C36.5775 8.09869 36.3961 8.1922 36.2573 8.33389C36.0894 8.50642 35.9969 8.73854 36.0001 8.97924C36.0033 9.21993 36.1019 9.44952 36.2743 9.61755L41.4797 14.6927L40.2499 21.8591C40.2211 22.0258 40.2395 22.1972 40.3032 22.354C40.3668 22.5107 40.4731 22.6465 40.61 22.746C40.7469 22.8454 40.9089 22.9045 41.0776 22.9165C41.2464 22.9285 41.4151 22.893 41.5648 22.814L48.0001 19.4306L54.4354 22.814C54.6111 22.9075 54.8151 22.9387 55.0106 22.9047C55.5037 22.8197 55.8352 22.3521 55.7502 21.8591L54.5204 14.6927L59.7259 9.61755C59.8675 9.4787 59.9611 9.29734 59.9894 9.09898C60.0659 8.60309 59.7202 8.14403 59.2243 8.07035Z" fill="#FFD700"/>
<path d="M95.2243 8.07035L88.0296 7.02472L84.8133 0.504407C84.7255 0.325885 84.581 0.181367 84.4024 0.0935222C83.9547 -0.127505 83.4106 0.0566843 83.1868 0.504407L79.9706 7.02472L72.7758 8.07035C72.5775 8.09869 72.3961 8.1922 72.2573 8.33389C72.0894 8.50642 71.9969 8.73854 72.0001 8.97924C72.0033 9.21993 72.1019 9.44952 72.2743 9.61755L77.4797 14.6927L76.2499 21.8591C76.2211 22.0258 76.2395 22.1972 76.3032 22.354C76.3668 22.5107 76.4731 22.6465 76.61 22.746C76.7469 22.8454 76.9089 22.9045 77.0776 22.9165C77.2464 22.9285 77.4151 22.893 77.5648 22.814L84.0001 19.4306L90.4354 22.814C90.6111 22.9075 90.8151 22.9387 91.0106 22.9047C91.5037 22.8197 91.8352 22.3521 91.7502 21.8591L90.5204 14.6927L95.7259 9.61755C95.8675 9.4787 95.9611 9.29734 95.9894 9.09898C96.0659 8.60309 95.7202 8.14403 95.2243 8.07035Z" fill="#FFD700"/>
<path d="M131.224 8.07035L124.03 7.02472L120.813 0.504407C120.725 0.325885 120.581 0.181367 120.402 0.0935222C119.955 -0.127505 119.411 0.0566843 119.187 0.504407L115.971 7.02472L108.776 8.07035C108.577 8.09869 108.396 8.1922 108.257 8.33389C108.089 8.50642 107.997 8.73854 108 8.97924C108.003 9.21993 108.102 9.44952 108.274 9.61755L113.48 14.6927L112.25 21.8591C112.221 22.0258 112.24 22.1972 112.303 22.354C112.367 22.5107 112.473 22.6465 112.61 22.746C112.747 22.8454 112.909 22.9045 113.078 22.9165C113.246 22.9285 113.415 22.893 113.565 22.814L120 19.4306L126.435 22.814C126.611 22.9075 126.815 22.9387 127.011 22.9047C127.504 22.8197 127.835 22.3521 127.75 21.8591L126.52 14.6927L131.726 9.61755C131.868 9.4787 131.961 9.29734 131.989 9.09898C132.066 8.60309 131.72 8.14403 131.224 8.07035Z" fill="#FFD700"/>
<path d="M147.63 21.5163C147.589 21.6844 147.588 21.8591 147.628 22.0275C147.668 22.1959 147.747 22.3535 147.859 22.4886C147.972 22.6236 148.115 22.7326 148.278 22.8073C148.441 22.882 148.619 22.9205 148.8 22.92C149.037 22.92 149.269 22.8531 149.466 22.7275L156 18.5679L162.534 22.7275C162.739 22.8571 162.98 22.9238 163.225 22.9187C163.47 22.9135 163.708 22.8368 163.906 22.6988C164.104 22.5607 164.254 22.368 164.334 22.1466C164.414 21.9252 164.421 21.6856 164.355 21.4601L162.16 14.1265L167.603 9.44895C167.777 9.29905 167.902 9.10365 167.961 8.8869C168.02 8.67016 168.012 8.44158 167.936 8.22943C167.861 8.01728 167.722 7.83087 167.537 7.69325C167.352 7.55563 167.129 7.47283 166.895 7.4551L160.054 6.93487L157.093 0.677182C156.999 0.475635 156.846 0.30445 156.652 0.184287C156.458 0.0641252 156.232 0.000121325 156 1.72317e-07C155.769 -0.000120981 155.543 0.0636458 155.349 0.183605C155.155 0.303564 155.001 0.474588 154.907 0.676036L151.946 6.93487L145.105 7.45396C144.875 7.47135 144.656 7.5516 144.472 7.68512C144.289 7.81864 144.15 7.99977 144.071 8.20684C143.993 8.41391 143.979 8.63816 144.03 8.85275C144.082 9.06734 144.197 9.26318 144.362 9.41686L149.419 14.123L147.63 21.5163ZM156 3.9315L158.451 9.11206L159.156 9.16591H159.157L163.924 9.52687L159.999 12.9004L159.997 12.9027L159.442 13.3793L159.647 14.0634V14.0669L161.151 19.0916L156 15.8132V3.9315Z" fill="#FFD700"/>
</svg>
