<svg width="144" height="16" viewBox="0 0 144 16" fill="none" xmlns="http://www.w3.org/2000/svg">
<path d="M15.4829 5.38024L10.6864 4.68315L8.54222 0.336271C8.48365 0.217256 8.38731 0.120911 8.26829 0.0623481C7.96981 -0.0850036 7.6071 0.0377895 7.45786 0.336271L5.3137 4.68315L0.517213 5.38024C0.384974 5.39913 0.26407 5.46147 0.171503 5.55592C0.0595945 5.67095 -0.0020722 5.82569 5.31712e-05 5.98616C0.00217854 6.14662 0.0679221 6.29968 0.182838 6.4117L3.65316 9.79512L2.83328 14.5727C2.81405 14.6839 2.82635 14.7982 2.86878 14.9027C2.91121 15.0072 2.98207 15.0977 3.07333 15.164C3.16459 15.2302 3.27259 15.2696 3.38509 15.2777C3.4976 15.2857 3.6101 15.262 3.70983 15.2094L8.00004 12.9537L12.2902 15.2094C12.4074 15.2717 12.5434 15.2925 12.6737 15.2698C13.0024 15.2131 13.2235 14.9014 13.1668 14.5727L12.3469 9.79512L15.8172 6.4117C15.9117 6.31913 15.974 6.19823 15.9929 6.06599C16.0439 5.73539 15.8135 5.42935 15.4829 5.38024Z" fill="#00B67A"/>
<path d="M47.4829 5.38024L42.6864 4.68315L40.5422 0.336271C40.4837 0.217256 40.3873 0.120911 40.2683 0.0623481C39.9698 -0.0850036 39.6071 0.0377895 39.4579 0.336271L37.3137 4.68315L32.5172 5.38024C32.385 5.39913 32.2641 5.46147 32.1715 5.55592C32.0596 5.67095 31.9979 5.82569 32.0001 5.98616C32.0022 6.14662 32.0679 6.29968 32.1828 6.4117L35.6532 9.79512L34.8333 14.5727C34.8141 14.6839 34.8264 14.7982 34.8688 14.9027C34.9112 15.0072 34.9821 15.0977 35.0733 15.164C35.1646 15.2302 35.2726 15.2696 35.3851 15.2777C35.4976 15.2857 35.6101 15.262 35.7098 15.2094L40 12.9537L44.2902 15.2094C44.4074 15.2717 44.5434 15.2925 44.6737 15.2698C45.0024 15.2131 45.2235 14.9014 45.1668 14.5727L44.3469 9.79512L47.8172 6.4117C47.9117 6.31913 47.974 6.19823 47.9929 6.06599C48.0439 5.73539 47.8135 5.42935 47.4829 5.38024Z" fill="#00B67A"/>
<path d="M79.4829 5.38024L74.6864 4.68315L72.5422 0.336271C72.4837 0.217256 72.3873 0.120911 72.2683 0.0623481C71.9698 -0.0850036 71.6071 0.0377895 71.4579 0.336271L69.3137 4.68315L64.5172 5.38024C64.385 5.39913 64.2641 5.46147 64.1715 5.55592C64.0596 5.67095 63.9979 5.82569 64.0001 5.98616C64.0022 6.14662 64.0679 6.29968 64.1828 6.4117L67.6532 9.79512L66.8333 14.5727C66.8141 14.6839 66.8264 14.7982 66.8688 14.9027C66.9112 15.0072 66.9821 15.0977 67.0733 15.164C67.1646 15.2302 67.2726 15.2696 67.3851 15.2777C67.4976 15.2857 67.6101 15.262 67.7098 15.2094L72 12.9537L76.2902 15.2094C76.4074 15.2717 76.5434 15.2925 76.6737 15.2698C77.0024 15.2131 77.2235 14.9014 77.1668 14.5727L76.3469 9.79512L79.8172 6.4117C79.9117 6.31913 79.974 6.19823 79.9929 6.06599C80.0439 5.73539 79.8135 5.42935 79.4829 5.38024Z" fill="#00B67A"/>
<path d="M111.483 5.38024L106.686 4.68315L104.542 0.336271C104.484 0.217256 104.387 0.120911 104.268 0.0623481C103.97 -0.0850036 103.607 0.0377895 103.458 0.336271L101.314 4.68315L96.5172 5.38024C96.385 5.39913 96.2641 5.46147 96.1715 5.55592C96.0596 5.67095 95.9979 5.82569 96.0001 5.98616C96.0022 6.14662 96.0679 6.29968 96.1828 6.4117L99.6532 9.79512L98.8333 14.5727C98.8141 14.6839 98.8264 14.7982 98.8688 14.9027C98.9112 15.0072 98.9821 15.0977 99.0733 15.164C99.1646 15.2302 99.2726 15.2696 99.3851 15.2777C99.4976 15.2857 99.6101 15.262 99.7098 15.2094L104 12.9537L108.29 15.2094C108.407 15.2717 108.543 15.2925 108.674 15.2698C109.002 15.2131 109.223 14.9014 109.167 14.5727L108.347 9.79512L111.817 6.4117C111.912 6.31913 111.974 6.19823 111.993 6.06599C112.044 5.73539 111.813 5.42935 111.483 5.38024Z" fill="#00B67A"/>
<path d="M143.483 5.38024L138.686 4.68315L136.542 0.336271C136.484 0.217256 136.387 0.120911 136.268 0.0623481C135.97 -0.0850036 135.607 0.0377895 135.458 0.336271L133.314 4.68315L128.517 5.38024C128.385 5.39913 128.264 5.46147 128.172 5.55592C128.06 5.67095 127.998 5.82569 128 5.98616C128.002 6.14662 128.068 6.29968 128.183 6.4117L131.653 9.79512L130.833 14.5727C130.814 14.6839 130.826 14.7982 130.869 14.9027C130.911 15.0072 130.982 15.0977 131.073 15.164C131.165 15.2302 131.273 15.2696 131.385 15.2777C131.498 15.2857 131.61 15.262 131.71 15.2094L136 12.9537L140.29 15.2094C140.407 15.2717 140.543 15.2925 140.674 15.2698C141.002 15.2131 141.223 14.9014 141.167 14.5727L140.347 9.79512L143.817 6.4117C143.912 6.31913 143.974 6.19823 143.993 6.06599C144.044 5.73539 143.813 5.42935 143.483 5.38024Z" fill="#00B67A"/>
</svg>
