<svg version="1.1" id="Layer_1" xmlns="http://www.w3.org/2000/svg" xmlns:xlink="http://www.w3.org/1999/xlink" x="0px" y="0px"
	 width="100%" viewBox="0 0 500 500" enable-background="new 0 0 500 500" xml:space="preserve">
<path fill="#000000" opacity="1.000000" stroke="none" 
	d="
M222.000000,501.000000 
	C148.000015,501.000000 74.500038,501.000000 1.000039,501.000000 
	C1.000026,334.333405 1.000026,167.666779 1.000013,1.000129 
	C167.666565,1.000086 334.333130,1.000086 500.999756,1.000043 
	C500.999847,167.666534 500.999847,334.333069 500.999939,500.999817 
	C408.166656,501.000000 315.333344,501.000000 222.000000,501.000000 
M363.842590,312.478241 
	C363.645813,312.191559 363.376862,312.014587 362.972778,311.223358 
	C360.917114,308.147064 358.861481,305.070770 356.741760,301.341278 
	C356.417450,300.547546 356.093140,299.753784 355.859039,298.322052 
	C355.238312,297.535614 354.617584,296.749207 353.995087,296.016205 
	C353.995087,296.016205 354.045013,295.997009 353.979797,295.238983 
	C351.993958,291.819153 350.008118,288.399353 347.975952,284.288239 
	C347.003845,282.840576 346.031738,281.392944 345.008240,279.231842 
	C344.336334,278.102539 343.664459,276.973236 342.952850,275.529785 
	C342.952850,275.529785 342.862518,275.226288 342.995422,274.570923 
	C342.657745,274.313568 342.320099,274.056213 341.917389,273.432373 
	C341.917389,273.432373 341.781281,273.085968 341.843414,272.546051 
	C341.562653,272.338684 341.281891,272.131348 340.991577,272.008331 
	C340.991577,272.008331 341.075897,272.018158 341.027100,271.372498 
	C340.696869,270.888550 340.366669,270.404602 340.016296,269.985687 
	C340.016296,269.985687 340.083191,269.998413 339.950165,269.432007 
	C339.626770,269.238464 339.303345,269.044891 338.919800,268.515808 
	C338.919800,268.515808 338.830292,268.186859 338.965607,267.558929 
	C338.637054,267.317291 338.308502,267.075653 337.640442,266.223785 
	C336.040497,263.485840 334.440582,260.747925 332.997955,257.361725 
	C332.657135,256.900024 332.316345,256.438324 331.830597,255.493546 
	C331.544525,255.339600 331.258453,255.185654 330.932159,254.235275 
	C330.966034,253.177338 330.999908,252.119415 331.036224,251.038696 
	C331.036224,251.038696 331.057312,251.029739 331.742554,250.940491 
	C333.164337,249.982788 334.586121,249.025070 336.071899,248.062775 
	C336.071899,248.062775 336.065247,247.998993 336.790497,247.927429 
	C341.205963,245.377823 345.621399,242.828232 350.772644,240.108643 
	C354.853149,237.760178 358.933655,235.411697 363.014130,233.063217 
	C362.648773,232.441345 362.283447,231.819473 361.918091,231.197586 
	C356.497009,233.791733 351.075928,236.385864 344.957550,239.044006 
	C341.622711,240.685425 338.287872,242.326843 334.284668,244.237564 
	C333.169159,244.837799 332.080933,245.496857 330.933960,246.029297 
	C315.942139,252.988739 300.941986,259.930267 285.171478,266.970123 
	C283.168335,267.644196 281.129028,268.227417 279.167999,269.007355 
	C268.294739,273.331970 257.514282,277.901123 246.560730,282.009705 
	C233.458603,286.924255 220.214111,291.459198 206.230148,296.048065 
	C199.825226,297.532684 193.459763,299.228851 187.002533,300.433105 
	C182.082031,301.350739 177.045151,301.644409 171.608810,302.072144 
	C171.608810,302.072144 171.145889,301.972626 170.816635,301.291443 
	C169.134811,300.910461 167.452972,300.529480 165.088898,300.047272 
	C155.968002,295.793488 158.430588,286.818237 157.186462,279.226318 
	C155.924957,280.090271 155.338638,280.802246 154.872589,281.585754 
	C151.480835,287.287964 147.964859,292.923035 144.769974,298.734222 
	C138.741989,309.698669 131.370468,320.168671 132.981979,333.819641 
	C134.107468,343.353577 138.701508,350.236542 147.607040,355.065338 
	C148.732773,355.633301 149.858505,356.201233 151.477707,356.958710 
	C151.649231,356.999084 151.820740,357.039429 152.435593,357.761871 
	C154.086060,357.835022 155.762848,357.745667 157.382706,358.007935 
	C167.194321,359.596405 175.444656,356.497894 182.563965,349.832458 
	C185.705902,346.890839 188.882172,343.985901 192.664398,340.784973 
	C195.128830,338.459045 197.593277,336.133148 200.747574,333.972198 
	C201.195816,333.820221 201.726456,333.774689 202.080231,333.500732 
	C211.721924,326.034637 221.286316,318.467346 230.994202,311.088715 
	C236.908340,306.593567 243.038971,302.383270 249.011597,298.019684 
	C249.011597,298.019684 249.032272,298.082184 249.763763,298.074982 
	C253.200317,295.733337 256.636871,293.391663 260.009766,291.024200 
	C260.009766,291.024200 260.038788,291.086456 260.775909,291.072510 
	C265.221924,288.427612 269.667969,285.782715 274.103851,283.069702 
	C274.103851,283.069702 274.036255,283.082977 274.628784,283.009766 
	C274.827789,282.678833 275.026825,282.347870 275.752747,281.977417 
	C276.104706,281.964355 276.456696,281.951294 277.054840,282.450562 
	C277.368256,282.628784 277.681671,282.806976 278.255951,283.648865 
	C278.755463,284.860626 279.029266,286.243408 279.794708,287.253662 
	C282.638611,291.007141 282.304596,296.875732 287.374573,299.715759 
	C288.015564,301.467529 288.437866,303.341187 289.334503,304.950531 
	C293.807861,312.979675 298.321930,320.988800 302.991089,328.905060 
	C305.831604,333.720978 308.979034,338.355835 312.010712,343.772369 
	C315.293701,347.192902 318.045441,351.480743 321.956268,353.876312 
	C335.304260,362.052582 352.171997,360.686493 362.601379,346.582672 
	C369.950684,336.644073 370.831390,325.089813 364.968567,314.445801 
	C364.968567,314.445801 364.822540,313.994659 364.861908,313.499176 
	C364.697540,313.167542 364.430389,312.996460 364.056183,312.938049 
	C364.056183,312.938049 364.008362,312.942627 363.842590,312.478241 
M182.456207,234.110626 
	C182.106186,234.327271 182.027298,234.617523 182.090118,235.417389 
	C182.090118,235.417389 182.023788,235.867310 181.405075,236.092209 
	C180.987640,236.803375 180.570221,237.514557 180.045837,238.466858 
	C180.045837,238.466858 180.025116,238.729813 179.357986,239.069962 
	C177.652069,242.917938 175.946167,246.765915 174.325989,250.583267 
	C174.325989,250.583267 174.275223,250.507690 173.722305,250.846268 
	C172.764771,252.517639 171.807251,254.189011 170.244781,256.094513 
	C169.843369,257.469299 169.441956,258.844055 169.040787,260.557861 
	C169.040787,260.557861 168.990891,260.893188 168.192703,260.968872 
	C166.315796,265.344482 165.391571,269.609924 165.776505,274.663544 
	C166.411377,282.998291 171.321915,288.590240 179.474533,290.134552 
	C189.989670,292.126373 199.992737,290.199982 209.976501,287.845459 
	C215.462219,286.551727 221.597107,285.771362 225.167877,279.316406 
	C226.270660,277.558380 227.537521,275.880585 228.444473,274.026733 
	C230.860138,269.088959 233.120850,264.075409 236.213425,259.059479 
	C240.826599,250.963303 245.439774,242.867111 250.669968,235.116882 
	C256.297882,244.746521 262.013519,254.326691 267.492432,264.040375 
	C268.872345,266.486847 269.940002,267.320099 272.844482,266.157684 
	C281.563782,262.668213 290.489227,259.696716 299.235260,256.270447 
	C308.248535,252.739471 317.145447,248.911453 326.598022,245.004837 
	C321.807343,237.202469 317.430328,230.073853 312.996948,222.244522 
	C312.351929,221.159653 311.706940,220.074783 311.061371,218.954041 
	C311.061371,218.954041 311.026764,218.944519 311.024078,218.316162 
	C310.704285,217.852585 310.384491,217.388992 309.884949,216.458847 
	C309.685638,216.162308 309.408661,215.992401 309.003510,215.256454 
	C308.361450,214.166473 307.719421,213.076492 307.081024,211.927246 
	C307.081024,211.927246 307.021667,211.925400 306.990448,211.199753 
	C305.351776,208.441895 303.713135,205.684021 301.963806,202.452255 
	C301.963806,202.452255 301.832520,201.983627 301.924896,201.482590 
	C301.651764,201.311157 301.378601,201.139740 300.945953,200.471939 
	C300.902802,200.303574 300.859650,200.135208 300.915955,199.468353 
	C300.637909,199.304642 300.359833,199.140930 300.069733,198.935730 
	C300.069733,198.935730 300.027832,198.925217 300.001465,198.321671 
	C299.697296,197.873444 299.393127,197.425217 299.069244,196.951630 
	C299.069244,196.951630 299.042725,196.933472 298.953278,196.432373 
	C298.672577,196.271408 298.391846,196.110428 297.944855,195.476074 
	C297.898773,195.315292 297.852692,195.154526 297.913818,194.475891 
	C297.625488,194.301193 297.337158,194.126495 297.001495,193.973633 
	C297.001495,193.973633 297.042755,193.933731 296.988983,193.197479 
	C290.682495,182.123886 284.376007,171.050293 278.049347,159.956573 
	C278.049347,159.956573 278.029388,159.936249 277.980377,159.230087 
	C276.258392,157.020859 274.536407,154.811646 272.720337,152.275818 
	C272.720337,152.275818 272.393097,152.184036 272.056488,151.655075 
	C269.722473,150.091721 267.388489,148.528381 265.011261,146.990219 
	C265.011261,146.990219 265.038055,146.948135 265.032959,146.196793 
	C264.335327,145.844574 263.637695,145.492371 262.527557,145.022919 
	C262.527557,145.022919 262.110748,144.922134 261.780304,144.240952 
	C260.532074,144.235107 259.283875,144.229263 257.566589,144.054550 
	C257.566589,144.054550 257.076202,143.965073 256.605988,143.233414 
	C254.618469,143.164200 252.631195,143.087326 250.643402,143.027039 
	C240.411865,142.716675 232.088928,146.532578 226.484711,155.135513 
	C221.369537,162.987793 216.616165,171.091019 212.019867,179.261688 
	C207.433044,187.415497 203.239258,195.790375 198.451447,204.156631 
	C198.143066,204.337860 198.071030,204.587494 197.945206,205.569717 
	C196.714401,208.056885 195.483597,210.544052 193.906738,213.653488 
	C191.326126,218.089294 188.745529,222.525101 186.016022,227.408569 
	C186.016022,227.408569 185.958328,227.876801 185.873505,227.872574 
	C185.873505,227.872574 185.865021,227.957092 185.234085,228.181198 
	C184.804489,229.422165 184.374878,230.663147 183.903900,231.908829 
	C183.903900,231.908829 183.895370,231.949570 183.292114,232.142029 
	C183.171326,232.746399 183.050522,233.350769 182.996948,233.989059 
	C182.996948,233.989059 182.927963,233.948441 182.456207,234.110626 
M382.314575,220.077972 
	C379.048035,221.496246 375.781494,222.914520 371.813995,224.637131 
	C376.991577,228.504517 378.910828,224.266983 381.580566,222.959702 
	C382.312378,222.601334 382.556427,221.246750 382.314575,220.077972 
z"/>
<path fill="#2CB1E0" opacity="1.000000" stroke="none" 
	d="
M257.076202,143.965073 
	C257.076202,143.965073 257.566589,144.054550 258.108521,144.305481 
	C259.803894,144.678329 260.957336,144.800232 262.110748,144.922134 
	C262.110748,144.922134 262.527557,145.022919 262.850830,145.352432 
	C263.795441,146.104004 264.416748,146.526077 265.038055,146.948151 
	C265.038055,146.948135 265.011261,146.990219 265.055969,147.333130 
	C267.531494,149.178711 269.962311,150.681366 272.393097,152.184036 
	C272.393097,152.184036 272.720337,152.275818 272.666199,152.780945 
	C274.417847,155.502792 276.223633,157.719513 278.029388,159.936249 
	C278.029388,159.936249 278.049347,159.956573 278.039062,160.382629 
	C278.557007,163.013885 278.660309,165.444641 279.689758,167.383743 
	C283.409302,174.390045 287.294952,181.319962 291.435577,188.084259 
	C292.813232,190.334885 295.146423,192.000610 297.042755,193.933731 
	C297.042755,193.933731 297.001495,193.973633 297.122711,194.156525 
	C297.395569,194.588409 297.583130,194.806519 297.806580,194.993744 
	C297.852692,195.154526 297.898773,195.315292 298.143646,195.909149 
	C298.535614,196.586975 298.769043,196.784058 299.042725,196.933472 
	C299.042725,196.933472 299.069244,196.951630 299.115540,197.241470 
	C299.450531,197.995941 299.739197,198.460571 300.027832,198.925217 
	C300.027832,198.925217 300.069733,198.935730 300.162598,199.145996 
	C300.410706,199.588989 300.597717,199.792511 300.816498,199.966843 
	C300.859650,200.135208 300.902802,200.303574 301.105988,200.914276 
	C301.423615,201.593811 301.612457,201.802826 301.832520,201.983627 
	C301.832520,201.983627 301.963806,202.452255 301.997864,203.121338 
	C302.026123,205.525497 302.020294,207.260544 301.634033,208.986740 
	C299.315521,207.973892 297.377441,206.969925 295.796051,206.150742 
	C292.774841,206.820938 289.710541,207.179764 286.879852,208.192001 
	C279.862732,210.701279 273.098358,210.141449 265.948975,208.339050 
	C261.768127,207.285049 256.754364,205.970459 253.233612,211.453217 
	C249.852219,216.718918 245.073257,218.578217 239.872070,213.123962 
	C239.888306,213.091644 239.948944,213.130173 239.839508,212.928680 
	C239.563690,212.469040 239.364487,212.239334 239.031021,211.918732 
	C238.929550,211.799377 238.905212,211.487015 238.796494,211.218262 
	C238.466171,210.636795 238.244553,210.324097 237.921310,209.913727 
	C237.819687,209.816025 237.818848,209.534088 237.826752,209.155701 
	C237.155304,207.903564 236.475967,207.029816 235.823517,206.116760 
	C235.850433,206.077469 235.928375,206.132263 235.814331,205.928925 
	C235.529892,205.463593 235.326004,205.230957 234.998276,204.924164 
	C234.907959,204.820618 234.929855,204.546692 234.796494,204.257782 
	C234.409607,203.631348 234.156097,203.293823 233.696564,202.795197 
	C233.300903,202.156021 233.111282,201.677963 232.867126,200.890137 
	C232.470795,200.063461 232.128983,199.546539 231.840057,199.065857 
	C231.892960,199.102097 231.818115,199.206207 231.839447,198.825760 
	C230.792038,197.051239 229.723297,195.657150 228.660934,194.229584 
	C228.667313,194.196121 228.722961,194.235458 228.784729,193.842758 
	C227.817978,192.017929 226.789474,190.585800 225.809341,189.113831 
	C225.857712,189.073975 225.935776,189.172043 225.829559,188.961288 
	C225.561966,188.478271 225.364670,188.235153 225.027847,187.867157 
	C224.924210,187.713150 224.889542,187.343536 224.849976,187.016968 
	C224.489578,186.130219 224.168762,185.570053 223.893478,185.027557 
	C223.939026,185.045227 223.902054,185.135666 223.865143,184.837219 
	C223.549500,184.016266 223.270782,183.493744 222.914520,182.868469 
	C222.836975,182.765686 222.897568,182.515427 222.915436,182.078873 
	C222.347214,179.116623 221.761124,176.590912 221.118347,173.720230 
	C221.087341,172.911163 221.113037,172.447083 221.399551,171.879089 
	C223.915314,166.114807 225.190720,159.979584 229.787003,155.467804 
	C231.877304,153.415939 233.486771,150.634033 235.916824,149.214951 
	C242.378067,145.441803 249.428467,143.311218 257.076202,143.965073 
z"/>
<path fill="#299CCE" opacity="1.000000" stroke="none" 
	d="
M151.992264,357.079834 
	C151.820740,357.039429 151.649231,356.999084 151.277435,356.592529 
	C150.669296,353.064728 149.327835,352.553253 147.016235,354.795746 
	C138.701508,350.236542 134.107468,343.353577 132.981979,333.819641 
	C131.370468,320.168671 138.741989,309.698669 144.769974,298.734222 
	C147.964859,292.923035 151.480835,287.287964 154.872589,281.585754 
	C155.338638,280.802246 155.924957,280.090271 157.186462,279.226318 
	C158.430588,286.818237 155.968002,295.793488 165.646606,300.398529 
	C167.851501,301.157379 169.498703,301.565002 171.145889,301.972626 
	C171.145889,301.972626 171.608810,302.072144 172.125366,302.314697 
	C173.756195,302.755707 174.870468,302.954163 175.987274,303.578918 
	C175.679306,306.438202 175.374680,308.871887 175.056976,311.303894 
	C174.602219,314.785095 174.084747,318.259247 173.703079,321.748352 
	C173.543274,323.209259 173.839386,324.726746 173.626068,326.173981 
	C172.466446,334.041443 170.910797,341.864410 170.110382,349.765411 
	C169.669006,354.122162 168.068954,355.992981 163.696671,356.054718 
	C159.791153,356.109863 155.893433,356.716522 151.992264,357.079834 
z"/>
<path fill="#2AAADB" opacity="1.000000" stroke="none" 
	d="
M239.855835,213.156265 
	C245.073257,218.578217 249.852219,216.718918 253.233612,211.453217 
	C256.754364,205.970459 261.768127,207.285049 265.948975,208.339050 
	C273.098358,210.141449 279.862732,210.701279 286.879852,208.192001 
	C289.710541,207.179764 292.774841,206.820938 295.796051,206.150742 
	C297.377441,206.969925 299.315521,207.973892 301.894043,208.922577 
	C304.030182,209.886642 305.525940,210.906021 307.021667,211.925400 
	C307.021667,211.925400 307.081024,211.927246 307.075806,212.298264 
	C307.731720,213.762558 308.392853,214.855850 309.054016,215.949127 
	C309.408661,215.992401 309.685638,216.162308 310.022278,216.974457 
	C310.448639,217.974884 310.737701,218.459702 311.026764,218.944519 
	C311.026764,218.944519 311.061371,218.954041 311.031555,219.349304 
	C310.993805,220.503143 310.985809,221.261719 310.727844,222.186829 
	C308.986389,221.632980 307.494904,220.912598 305.706024,220.048584 
	C303.924042,220.452362 301.475861,220.565308 299.489777,221.581406 
	C297.505157,222.596771 296.086334,224.661530 294.220551,225.985977 
	C293.042023,226.822586 291.541504,227.330231 290.110443,227.661835 
	C286.566528,228.483017 283.007019,229.436142 279.402893,229.747910 
	C274.873718,230.139679 269.697418,231.344238 265.861511,229.708954 
	C258.169830,226.429886 256.815857,226.123199 252.712799,232.890900 
	C251.667694,232.496994 250.899277,232.233856 249.899353,231.710205 
	C246.397171,225.351883 243.126511,219.254074 239.855835,213.156265 
M251.836563,226.283279 
	C251.958481,226.113754 252.080383,225.944244 252.202316,225.774734 
	C252.023651,225.881912 251.845001,225.989075 251.836563,226.283279 
z"/>
<path fill="#2896CC" opacity="1.000000" stroke="none" 
	d="
M152.213928,357.420837 
	C155.893433,356.716522 159.791153,356.109863 163.696671,356.054718 
	C168.068954,355.992981 169.669006,354.122162 170.110382,349.765411 
	C170.910797,341.864410 172.466446,334.041443 173.626068,326.173981 
	C173.839386,324.726746 173.543274,323.209259 173.703079,321.748352 
	C174.084747,318.259247 174.602219,314.785095 175.056976,311.303894 
	C175.374680,308.871887 175.679306,306.438202 176.440582,303.541687 
	C185.249451,302.020081 193.607498,300.962036 201.971008,300.324738 
	C201.119720,303.514893 200.350296,306.315308 199.382401,309.045349 
	C198.355118,311.942993 197.064514,314.747437 196.041565,317.646423 
	C195.610077,318.869232 196.013657,320.615570 195.277252,321.463928 
	C191.204468,326.155884 192.713318,332.336090 190.780045,337.581940 
	C190.453735,338.467346 191.585022,339.889923 192.042847,341.064331 
	C188.882172,343.985901 185.705902,346.890839 182.563965,349.832458 
	C175.444656,356.497894 167.194321,359.596405 157.382706,358.007935 
	C155.762848,357.745667 154.086060,357.835022 152.213928,357.420837 
z"/>
<path fill="#2D9BCC" opacity="1.000000" stroke="none" 
	d="
M250.130875,231.970734 
	C250.899277,232.233856 251.667694,232.496994 252.800842,233.226959 
	C256.715912,238.639450 260.266266,243.585114 263.916718,248.670242 
	C264.899536,248.045059 265.684814,247.830475 265.932892,247.342682 
	C267.928772,243.418076 270.741730,243.401825 274.681824,244.440826 
	C277.300262,245.131332 280.434723,244.008820 283.310852,243.532578 
	C285.585358,243.155960 287.794586,242.351700 290.074219,242.046524 
	C295.510071,241.318863 301.099731,241.275742 306.359924,239.919296 
	C308.600708,239.341476 309.850098,238.561020 311.955902,240.200455 
	C313.274963,241.227432 315.519318,241.065918 317.348511,241.437683 
	C317.565674,239.628220 318.388458,237.625397 317.884308,236.046249 
	C316.480682,231.649963 314.526245,227.429520 312.855652,223.091507 
	C312.921997,223.043365 313.053345,222.945236 313.053345,222.945236 
	C317.430328,230.073853 321.807343,237.202469 326.598022,245.004837 
	C317.145447,248.911453 308.248535,252.739471 299.235260,256.270447 
	C290.489227,259.696716 281.563782,262.668213 272.844482,266.157684 
	C269.940002,267.320099 268.872345,266.486847 267.492432,264.040375 
	C262.013519,254.326691 256.297882,244.746521 250.430466,234.598480 
	C250.170929,233.376968 250.150894,232.673859 250.130875,231.970734 
z"/>
<path fill="#2D88BE" opacity="1.000000" stroke="none" 
	d="
M276.808655,281.938232 
	C276.456696,281.951294 276.104706,281.964355 275.250427,282.126709 
	C274.510803,282.544983 274.273529,282.813995 274.036255,283.082977 
	C274.036255,283.082977 274.103851,283.069702 273.714050,283.059113 
	C268.048035,284.326721 262.825104,285.692932 260.038788,291.086456 
	C260.038788,291.086456 260.009766,291.024200 259.659058,291.041748 
	C254.767410,291.767914 251.095581,293.748230 249.032272,298.082184 
	C249.032272,298.082184 249.011597,298.019684 248.667267,298.040253 
	C245.701370,299.390717 243.048584,300.662964 240.464706,302.062469 
	C235.000290,305.022095 229.571854,308.048157 223.871140,310.800537 
	C219.594147,304.912994 219.655609,302.766113 224.973068,296.313141 
	C221.315994,296.149841 218.556000,295.832947 215.815887,295.956726 
	C212.868546,296.089874 209.939865,296.636322 207.008896,296.791443 
	C207.014740,296.580414 207.031265,296.158569 207.031265,296.158569 
	C220.214111,291.459198 233.458603,286.924255 246.560730,282.009705 
	C257.514282,277.901123 268.294739,273.331970 279.167999,269.007355 
	C281.129028,268.227417 283.168335,267.644196 285.524231,267.251221 
	C285.300598,271.184113 287.591003,271.060944 290.067200,270.732544 
	C291.766510,270.507172 293.471863,270.327271 294.936462,270.380127 
	C289.032654,274.078766 283.366882,277.524292 277.540344,281.119843 
	C277.174835,281.480347 276.984528,281.703125 276.808655,281.938232 
z"/>
<path fill="#2896CC" opacity="1.000000" stroke="none" 
	d="
M180.025116,238.729813 
	C180.025116,238.729813 180.045837,238.466858 180.432037,238.303528 
	C181.265152,238.102768 181.712067,238.065353 182.386261,238.290436 
	C184.131027,239.401886 185.583649,240.799179 187.179245,240.987915 
	C190.718048,241.406509 194.509964,240.525269 197.876495,241.405823 
	C208.800049,244.262985 219.784058,245.182693 231.019318,244.351471 
	C231.478653,245.506042 231.897919,246.315887 232.353241,247.245880 
	C232.389297,247.366058 232.157944,247.463211 232.152740,247.840088 
	C232.435059,249.144333 232.722565,250.071716 233.098389,251.238983 
	C233.174942,251.814728 233.163162,252.150574 233.125854,252.921539 
	C233.496475,254.950668 233.892624,256.544678 234.397430,258.263306 
	C234.506073,258.387939 234.548386,258.715881 234.275452,258.942566 
	C233.335541,260.117645 232.668579,261.066010 231.657562,262.054932 
	C229.998535,263.184845 228.683533,264.274139 227.097961,265.587585 
	C219.695251,262.347565 212.167267,258.894257 203.578781,260.927887 
	C202.532578,261.175598 201.265747,260.806976 200.171265,260.485382 
	C191.743362,258.008972 183.332779,255.473602 174.850616,252.538239 
	C174.614685,251.582535 174.444946,251.045105 174.275223,250.507690 
	C174.275223,250.507690 174.325989,250.583267 174.626007,250.488068 
	C178.158371,247.175262 180.466446,243.553558 180.025116,238.729813 
z"/>
<path fill="#2671B3" opacity="1.000000" stroke="none" 
	d="
M364.822540,313.994659 
	C364.822540,313.994659 364.968567,314.445801 365.015442,315.080750 
	C365.039246,316.810974 365.016174,317.906281 364.710632,319.107697 
	C362.895050,319.010468 361.361938,318.807098 359.507263,318.561066 
	C359.682892,320.076782 359.821167,321.269958 359.954437,322.420135 
	C356.425232,322.769318 353.024811,322.517365 350.044189,323.516998 
	C342.710388,325.976624 335.647125,329.238251 328.326935,331.744629 
	C322.335815,333.795929 316.130920,335.222870 309.988983,336.555054 
	C309.113586,334.444855 308.237976,332.720856 307.433990,330.964020 
	C306.220673,328.312897 305.057373,325.638885 304.315918,322.978912 
	C314.144897,323.377563 321.556305,318.713745 328.846710,313.662567 
	C331.139282,312.074158 333.510101,309.734009 336.019012,309.484100 
	C343.671387,308.721954 350.742249,306.911987 356.805847,301.994476 
	C358.861481,305.070770 360.917114,308.147064 363.131592,311.782654 
	C363.490021,312.589630 363.729309,312.789856 364.008362,312.942627 
	C364.008362,312.942627 364.056183,312.938049 364.156433,313.150269 
	C364.416504,313.599030 364.605133,313.809753 364.822540,313.994659 
z"/>
<path fill="#1C375D" opacity="1.000000" stroke="none" 
	d="
M233.151398,252.486435 
	C233.163162,252.150574 233.174942,251.814728 233.121506,250.865845 
	C232.756851,249.322968 232.457397,248.393082 232.157944,247.463211 
	C232.157944,247.463211 232.389297,247.366058 232.363724,246.824219 
	C231.926376,244.454727 231.514603,242.627060 231.099579,240.404831 
	C230.665604,237.673233 230.234879,235.336182 229.820801,232.784637 
	C229.821457,232.273499 229.722275,232.007935 229.506683,231.386414 
	C229.119659,229.494537 228.765854,227.989670 228.427994,226.231873 
	C228.327942,225.663605 228.211960,225.348282 228.115326,224.632980 
	C227.499268,221.791016 226.863876,219.349014 226.275406,216.919113 
	C226.322327,216.931198 226.382431,216.855194 226.443085,216.432251 
	C224.588242,200.861710 219.118683,186.172592 220.198761,169.127701 
	C220.829041,171.042267 220.983887,171.512634 221.138733,171.983002 
	C221.113037,172.447083 221.087341,172.911163 221.049728,174.115601 
	C221.657715,177.409119 222.277649,179.962265 222.897568,182.515427 
	C222.897568,182.515427 222.836975,182.765686 222.919052,183.179367 
	C223.301437,184.107254 223.601746,184.621460 223.902054,185.135666 
	C223.902054,185.135666 223.939026,185.045227 223.921875,185.358231 
	C224.233002,186.228668 224.561264,186.786102 224.889542,187.343536 
	C224.889542,187.343536 224.924210,187.713150 225.060562,188.120178 
	C225.443192,188.742172 225.689484,188.957108 225.935776,189.172043 
	C225.935776,189.172043 225.857712,189.073975 225.875900,189.443466 
	C226.837051,191.287125 227.780014,192.761292 228.722961,194.235458 
	C228.722961,194.235458 228.667313,194.196121 228.735550,194.553711 
	C229.808563,196.342941 230.813339,197.774567 231.818115,199.206207 
	C231.818115,199.206207 231.892960,199.102097 231.879242,199.384552 
	C232.217560,200.177979 232.569626,200.688950 232.921661,201.199905 
	C233.111282,201.677963 233.300903,202.156021 233.773254,203.115143 
	C234.347290,203.913025 234.638565,204.229858 234.929855,204.546692 
	C234.929855,204.546692 234.907959,204.820618 235.038910,205.173676 
	C235.422714,205.728592 235.675537,205.930420 235.928375,206.132263 
	C235.928375,206.132263 235.850433,206.077469 235.884949,206.444183 
	C236.552612,207.718628 237.185730,208.626358 237.818848,209.534088 
	C237.818848,209.534088 237.819687,209.816025 237.972107,210.208221 
	C238.384766,210.895950 238.644989,211.191483 238.905212,211.487015 
	C238.905212,211.487015 238.929550,211.799377 239.074570,212.159393 
	C239.358139,212.847809 239.601257,213.051392 239.948944,213.130173 
	C239.948944,213.130173 239.888306,213.091644 239.872070,213.123962 
	C243.126511,219.254074 246.397171,225.351883 249.899353,231.710205 
	C250.150894,232.673859 250.170929,233.376968 250.121948,234.425507 
	C245.439774,242.867111 240.826599,250.963303 235.660522,259.076538 
	C234.920746,258.968323 234.734329,258.842438 234.548386,258.715881 
	C234.548386,258.715881 234.506073,258.387939 234.416443,257.841064 
	C233.934998,255.691620 233.543198,254.089035 233.151398,252.486435 
z"/>
<path fill="#268CC6" opacity="1.000000" stroke="none" 
	d="
M332.840637,258.009979 
	C334.440582,260.747925 336.040497,263.485840 337.913025,266.777222 
	C338.400482,267.616058 338.615387,267.901459 338.830292,268.186859 
	C338.830292,268.186859 338.919800,268.515808 339.090302,268.914490 
	C339.534912,269.541565 339.809052,269.769989 340.083191,269.998413 
	C340.083191,269.998413 340.016296,269.985687 340.069885,270.252014 
	C340.440918,271.018311 340.758392,271.518250 341.075897,272.018158 
	C341.075897,272.018158 340.991577,272.008331 341.095642,272.178955 
	C341.360840,272.620880 341.554688,272.866364 341.781281,273.085968 
	C341.781281,273.085968 341.917389,273.432373 342.057709,273.876038 
	C342.419525,274.621887 342.641022,274.924072 342.862518,275.226288 
	C342.862518,275.226288 342.952850,275.529785 342.963470,276.079041 
	C343.002686,277.407135 343.031311,278.186035 342.731445,279.114685 
	C340.421234,280.030090 338.495911,281.049072 336.445374,281.505524 
	C332.810059,282.314697 328.897064,282.235504 325.459900,283.503204 
	C317.543121,286.423065 309.859131,289.969513 302.046021,293.177246 
	C298.410675,294.669739 295.416748,294.500305 294.911713,289.361694 
	C295.605530,288.375854 296.207214,287.659058 297.026764,286.803894 
	C297.482117,286.417877 297.719574,286.170227 297.939148,285.951965 
	C297.921265,285.981384 297.866272,285.939941 298.075531,285.757843 
	C298.533173,285.090057 298.781525,284.604370 299.169586,283.899200 
	C299.578766,283.464691 299.848267,283.249695 300.454529,282.987396 
	C301.525391,281.954132 302.259521,280.968201 303.133423,279.677826 
	C310.857941,271.939392 318.442657,264.505402 326.088226,257.376770 
	C327.877319,262.202423 329.972473,259.972870 332.250305,258.007080 
	C332.447052,258.011108 332.840637,258.009979 332.840637,258.009979 
M302.898010,287.055420 
	C302.898010,287.055420 303.002441,287.001709 303.102112,286.944183 
	C303.102112,286.944183 302.998260,286.997528 302.898010,287.055420 
z"/>
<path fill="#2D88BE" opacity="1.000000" stroke="none" 
	d="
M234.275452,258.942566 
	C234.734329,258.842438 234.920746,258.968323 235.275391,259.092773 
	C233.120850,264.075409 230.860138,269.088959 228.444473,274.026733 
	C227.537521,275.880585 226.270660,277.558380 224.640259,279.672607 
	C211.113342,286.191681 197.478897,289.521454 183.036774,288.990234 
	C173.557663,288.641632 163.817200,279.416870 168.197144,268.054871 
	C172.305222,268.560028 170.506714,265.593658 171.000305,263.999695 
	C171.000000,264.000000 170.999390,264.000336 171.310135,264.125610 
	C174.007248,265.966064 176.182526,268.187012 178.824539,269.289703 
	C184.105820,271.493958 189.632751,273.115936 195.077866,274.919067 
	C198.523834,276.060211 201.963791,277.276672 205.492859,278.079285 
	C206.760696,278.367645 208.281555,277.543518 209.686951,277.227081 
	C209.603348,276.795197 209.519745,276.363281 209.436142,275.931396 
	C208.229980,275.303528 207.023819,274.675629 205.817657,274.047760 
	C205.878571,273.602692 205.939468,273.157654 206.000366,272.712585 
	C207.616562,272.712585 209.342590,272.344238 210.826782,272.786835 
	C214.247223,273.806854 217.475113,275.584991 220.937149,276.298737 
	C222.356979,276.591461 224.868835,275.369720 225.688766,274.078156 
	C228.112808,270.259888 229.940598,266.063110 232.001617,262.014374 
	C232.668579,261.066010 233.335541,260.117645 234.275452,258.942566 
z"/>
<path fill="#2679B8" opacity="1.000000" stroke="none" 
	d="
M356.773804,301.667877 
	C350.742249,306.911987 343.671387,308.721954 336.019012,309.484100 
	C333.510101,309.734009 331.139282,312.074158 328.846710,313.662567 
	C321.556305,318.713745 314.144897,323.377563 304.131744,322.710938 
	C301.280548,318.655853 299.056702,314.872986 297.164368,310.936432 
	C298.426880,309.325195 299.357910,307.867645 300.435242,306.181061 
	C305.172882,309.049316 309.288208,307.377716 313.568420,305.115570 
	C315.806030,303.932983 318.591248,303.820312 321.088531,303.086212 
	C323.759216,302.301147 326.396851,301.395111 329.022614,300.467468 
	C333.698425,298.815613 338.259705,296.705475 343.054688,295.575684 
	C345.884216,294.909027 349.070892,295.758087 352.421692,295.934204 
	C353.179291,295.960938 353.612152,295.978973 354.045013,295.997009 
	C354.045013,295.997009 353.995087,296.016205 354.012512,296.306091 
	C354.609589,297.383972 355.189209,298.171997 355.768829,298.960052 
	C356.093140,299.753784 356.417450,300.547546 356.773804,301.667877 
z"/>
<path fill="#33ADDB" opacity="1.000000" stroke="none" 
	d="
M221.399551,171.879089 
	C220.983887,171.512634 220.829041,171.042267 220.198761,169.127701 
	C219.118683,186.172592 224.588242,200.861710 226.053436,216.424591 
	C223.952347,215.869446 222.204605,215.029221 220.677841,213.892273 
	C219.119476,212.731781 217.774811,211.283447 216.342422,209.954834 
	C211.192520,205.177994 205.123932,205.968277 198.824493,207.208374 
	C198.428040,207.515625 198.256470,207.739655 198.094757,208.258087 
	C198.027130,208.685638 197.998810,208.856445 197.792114,209.231537 
	C197.395096,209.926651 197.176468,210.417511 196.864990,211.104797 
	C196.845734,211.867264 196.919296,212.433304 196.650238,212.995178 
	C195.622681,213.004410 194.937744,213.017807 194.252808,213.031219 
	C195.483597,210.544052 196.714401,208.056885 198.231140,205.125885 
	C198.698471,204.513870 198.817154,204.309280 198.873154,204.068329 
	C203.239258,195.790375 207.433044,187.415497 212.019867,179.261688 
	C216.616165,171.091019 221.369537,162.987793 226.484711,155.135513 
	C232.088928,146.532578 240.411865,142.716675 250.643402,143.027039 
	C252.631195,143.087326 254.618469,143.164200 256.841095,143.599243 
	C249.428467,143.311218 242.378067,145.441803 235.916824,149.214951 
	C233.486771,150.634033 231.877304,153.415939 229.787003,155.467804 
	C225.190720,159.979584 223.915314,166.114807 221.399551,171.879089 
M218.483322,207.896805 
	C218.341705,207.553818 218.200104,207.210815 218.058487,206.867798 
	C217.853226,207.028519 217.647964,207.189240 217.442719,207.349960 
	C217.688278,207.616776 217.933838,207.883591 218.483322,207.896805 
z"/>
<path fill="#299CCE" opacity="1.000000" stroke="none" 
	d="
M194.079773,213.342346 
	C194.937744,213.017807 195.622681,213.004410 196.564087,213.340332 
	C196.522507,214.275070 196.338028,214.965912 195.908157,215.428955 
	C192.908798,218.659805 194.232544,222.084427 195.987244,225.019760 
	C197.838165,228.116089 200.957870,228.090912 204.355942,227.191223 
	C206.230362,226.694916 208.539169,227.116425 210.473328,227.708405 
	C215.614929,229.282104 220.659470,231.172943 225.905792,232.994293 
	C226.896912,230.420074 227.654480,228.452454 228.412048,226.484818 
	C228.765854,227.989670 229.119659,229.494537 229.364136,231.504242 
	C229.437943,232.339096 229.621048,232.669128 229.804169,232.999146 
	C230.234879,235.336182 230.665604,237.673233 231.069260,240.805862 
	C231.021210,242.403214 231.000229,243.204956 230.979248,244.006714 
	C219.784058,245.182693 208.800049,244.262985 197.876495,241.405823 
	C194.509964,240.525269 190.718048,241.406509 187.179245,240.987915 
	C185.583649,240.799179 184.131027,239.401886 182.355011,237.930893 
	C182.072250,236.828339 182.048019,236.347824 182.023788,235.867310 
	C182.023788,235.867310 182.090118,235.417389 182.303650,235.049622 
	C182.709579,234.468460 182.846497,234.223984 182.927963,233.948441 
	C182.927963,233.948441 182.996948,233.989059 183.150879,233.758667 
	C183.501678,233.002060 183.698532,232.475815 183.895386,231.949570 
	C183.895370,231.949570 183.903900,231.908829 184.246460,231.790344 
	C185.014343,230.433594 185.439667,229.195343 185.865021,227.957092 
	C185.865021,227.957092 185.873505,227.872574 186.089279,227.878906 
	C186.258347,227.577118 186.211639,227.269028 186.164932,226.960922 
	C188.745529,222.525101 191.326126,218.089294 194.079773,213.342346 
z"/>
<path fill="#268CC6" opacity="1.000000" stroke="none" 
	d="
M207.003052,297.002441 
	C209.939865,296.636322 212.868546,296.089874 215.815887,295.956726 
	C218.556000,295.832947 221.315994,296.149841 224.973068,296.313141 
	C219.655609,302.766113 219.594147,304.912994 223.814758,311.125488 
	C223.347397,312.462952 222.678925,313.229034 221.925018,313.660065 
	C220.733871,312.242218 219.628159,311.159424 218.522446,310.076630 
	C218.059174,310.405243 217.595901,310.733887 217.132629,311.062500 
	C217.803207,312.760498 218.473785,314.458496 218.948242,316.426636 
	C216.220810,318.778687 213.581009,320.743713 211.183044,322.969299 
	C207.389435,326.490204 203.757858,330.185669 200.057709,333.807251 
	C197.593277,336.133148 195.128830,338.459045 192.353622,340.924652 
	C191.585022,339.889923 190.453735,338.467346 190.780045,337.581940 
	C192.713318,332.336090 191.204468,326.155884 195.277252,321.463928 
	C196.013657,320.615570 195.610077,318.869232 196.041565,317.646423 
	C197.064514,314.747437 198.355118,311.942993 199.382401,309.045349 
	C200.350296,306.315308 201.119720,303.514893 202.209564,300.111816 
	C203.962784,298.652954 205.482910,297.827698 207.003052,297.002441 
z"/>
<path fill="#1C375D" opacity="1.000000" stroke="none" 
	d="
M296.808868,286.942261 
	C296.207214,287.659058 295.605530,288.375854 294.638733,289.574554 
	C292.493073,292.730469 290.712524,295.404449 288.765533,298.198242 
	C288.263672,298.539581 287.928223,298.761108 287.592773,298.982635 
	C282.304596,296.875732 282.638611,291.007141 279.794708,287.253662 
	C279.029266,286.243408 278.755463,284.860626 278.099670,282.978485 
	C277.862640,281.862000 277.781891,281.415894 277.701111,280.969788 
	C283.366882,277.524292 289.032654,274.078766 295.228821,270.200562 
	C306.818024,263.864349 317.876862,257.960815 329.091827,252.323792 
	C329.301117,253.367065 329.354248,254.143784 329.106049,254.900543 
	C327.878937,255.610870 326.953156,256.341156 326.027374,257.071411 
	C318.442657,264.505402 310.857941,271.939392 302.869019,279.829376 
	C301.682465,281.201813 300.900116,282.118256 300.117737,283.034729 
	C299.848267,283.249695 299.578766,283.464691 298.930389,284.050934 
	C298.323090,284.928101 298.094696,285.434021 297.866272,285.939941 
	C297.866272,285.939941 297.921265,285.981384 297.679626,286.030518 
	C297.228302,286.367218 297.018585,286.654755 296.808868,286.942261 
z"/>
<path fill="#2C60A5" opacity="1.000000" stroke="none" 
	d="
M364.993103,319.001556 
	C365.016174,317.906281 365.039246,316.810974 365.087219,315.306702 
	C370.831390,325.089813 369.950684,336.644073 362.601379,346.582672 
	C352.171997,360.686493 335.304260,362.052582 321.956268,353.876312 
	C318.045441,351.480743 315.293701,347.192902 312.206543,343.337830 
	C312.402374,342.903259 312.840210,342.810822 313.131744,343.009216 
	C315.520386,344.339752 317.679749,346.537537 319.703796,346.419281 
	C328.411652,345.910522 337.145660,345.108765 345.739563,343.646423 
	C351.611755,342.647247 357.268402,340.381012 363.489655,338.542908 
	C363.537598,338.157196 363.193756,336.165070 364.025208,335.046692 
	C367.914459,329.814941 366.326385,324.438965 364.993103,319.001556 
z"/>
<path fill="#2D9BCC" opacity="1.000000" stroke="none" 
	d="
M328.935669,252.057251 
	C317.876862,257.960815 306.818024,263.864349 295.466858,269.947479 
	C293.471863,270.327271 291.766510,270.507172 290.067200,270.732544 
	C287.591003,271.060944 285.300598,271.184113 285.910461,267.204285 
	C300.941986,259.930267 315.942139,252.988739 330.933960,246.029297 
	C332.080933,245.496857 333.169159,244.837799 334.774841,244.418610 
	C335.531769,245.732758 335.798523,246.865875 336.065247,247.998993 
	C336.065247,247.998993 336.071899,248.062775 335.683533,248.073761 
	C333.882568,249.066406 332.469940,250.048065 331.057312,251.029724 
	C331.057312,251.029739 331.036224,251.038696 330.742828,251.101929 
	C329.944855,251.462524 329.440247,251.759888 328.935669,252.057251 
z"/>
<path fill="#4889AE" opacity="1.000000" stroke="none" 
	d="
M167.892136,267.936066 
	C163.817200,279.416870 173.557663,288.641632 183.036774,288.990234 
	C197.478897,289.521454 211.113342,286.191681 224.473297,279.986023 
	C221.597107,285.771362 215.462219,286.551727 209.976501,287.845459 
	C199.992737,290.199982 189.989670,292.126373 179.474533,290.134552 
	C171.321915,288.590240 166.411377,282.998291 165.776505,274.663544 
	C165.391571,269.609924 166.315796,265.344482 168.602081,261.319336 
	C168.993286,262.442139 168.975098,263.214508 168.768097,264.276489 
	C168.350220,265.689423 168.121185,266.812744 167.892136,267.936066 
z"/>
<path fill="#4889AE" opacity="1.000000" stroke="none" 
	d="
M200.402649,333.889709 
	C203.757858,330.185669 207.389435,326.490204 211.183044,322.969299 
	C213.581009,320.743713 216.220810,318.778687 219.235931,316.325256 
	C220.483307,315.300873 221.246887,314.648010 222.010468,313.995117 
	C222.678925,313.229034 223.347397,312.462952 224.072266,311.371948 
	C229.571854,308.048157 235.000290,305.022095 240.464706,302.062469 
	C243.048584,300.662964 245.701370,299.390717 248.697662,298.052917 
	C243.038971,302.383270 236.908340,306.593567 230.994202,311.088715 
	C221.286316,318.467346 211.721924,326.034637 202.080231,333.500732 
	C201.726456,333.774689 201.195816,333.820221 200.402649,333.889709 
z"/>
<path fill="#4889AE" opacity="1.000000" stroke="none" 
	d="
M312.840210,342.810822 
	C312.840210,342.810822 312.402374,342.903259 312.195496,342.987640 
	C308.979034,338.355835 305.831604,333.720978 302.991089,328.905060 
	C298.321930,320.988800 293.807861,312.979675 289.334503,304.950531 
	C288.437866,303.341187 288.015564,301.467529 287.483673,299.349182 
	C287.928223,298.761108 288.263672,298.539581 288.813782,298.557129 
	C291.629944,302.894165 294.231384,306.992157 296.832855,311.090149 
	C299.056702,314.872986 301.280548,318.655853 303.688599,322.706665 
	C305.057373,325.638885 306.220673,328.312897 307.433990,330.964020 
	C308.237976,332.720856 309.113586,334.444855 310.135925,336.863739 
	C311.156525,339.299530 311.998383,341.055176 312.840210,342.810822 
z"/>
<path fill="#33ADDB" opacity="1.000000" stroke="none" 
	d="
M297.015869,193.565613 
	C295.146423,192.000610 292.813232,190.334885 291.435577,188.084259 
	C287.294952,181.319962 283.409302,174.390045 279.689758,167.383743 
	C278.660309,165.444641 278.557007,163.013885 278.049164,160.392700 
	C284.376007,171.050293 290.682495,182.123886 297.015869,193.565613 
z"/>
<path fill="#4889AE" opacity="1.000000" stroke="none" 
	d="
M207.008896,296.791443 
	C205.482910,297.827698 203.962784,298.652954 202.204102,299.691101 
	C193.607498,300.962036 185.249451,302.020081 176.438080,303.115356 
	C174.870468,302.954163 173.756195,302.755707 172.350983,302.386475 
	C177.045151,301.644409 182.082031,301.350739 187.002533,300.433105 
	C193.459763,299.228851 199.825226,297.532684 206.630707,296.103333 
	C207.031265,296.158569 207.014740,296.580414 207.008896,296.791443 
z"/>
<path fill="#33ADDB" opacity="1.000000" stroke="none" 
	d="
M336.427856,247.963211 
	C335.798523,246.865875 335.531769,245.732758 335.109039,244.283951 
	C338.287872,242.326843 341.622711,240.685425 345.699768,239.018921 
	C347.640259,239.422104 348.838562,239.850357 350.036865,240.278625 
	C345.621399,242.828232 341.205963,245.377823 336.427856,247.963211 
M338.057068,244.427155 
	C338.057068,244.427155 337.897430,244.536591 337.897430,244.536591 
	C337.897430,244.536591 338.097748,244.526871 338.057068,244.427155 
z"/>
<path fill="#4889AE" opacity="1.000000" stroke="none" 
	d="
M350.404755,240.193634 
	C348.838562,239.850357 347.640259,239.422104 346.048401,238.986923 
	C351.075928,236.385864 356.497009,233.791733 361.918091,231.197586 
	C362.283447,231.819473 362.648773,232.441345 363.014130,233.063217 
	C358.933655,235.411697 354.853149,237.760178 350.404755,240.193634 
z"/>
<path fill="#33ADDB" opacity="1.000000" stroke="none" 
	d="
M382.669434,220.213654 
	C382.556427,221.246750 382.312378,222.601334 381.580566,222.959702 
	C378.910828,224.266983 376.991577,228.504517 371.813995,224.637131 
	C375.781494,222.914520 379.048035,221.496246 382.669434,220.213654 
z"/>
<path fill="#4889AE" opacity="1.000000" stroke="none" 
	d="
M260.407349,291.079468 
	C262.825104,285.692932 268.048035,284.326721 273.719116,283.093170 
	C269.667969,285.782715 265.221924,288.427612 260.407349,291.079468 
z"/>
<path fill="#2D9BCC" opacity="1.000000" stroke="none" 
	d="
M326.088226,257.376770 
	C326.953156,256.341156 327.878937,255.610870 329.498779,254.915436 
	C330.452728,254.977432 330.712555,255.004578 330.972382,255.031708 
	C331.258453,255.185654 331.544525,255.339600 331.914825,256.073212 
	C332.017212,257.102936 332.035370,257.553009 332.053528,258.003052 
	C329.972473,259.972870 327.877319,262.202423 326.088226,257.376770 
z"/>
<path fill="#4889AE" opacity="1.000000" stroke="none" 
	d="
M249.398010,298.078583 
	C251.095581,293.748230 254.767410,291.767914 259.690887,291.054657 
	C256.636871,293.391663 253.200317,295.733337 249.398010,298.078583 
z"/>
<path fill="#4889AE" opacity="1.000000" stroke="none" 
	d="
M354.012390,295.617981 
	C353.612152,295.978973 353.179291,295.960938 352.320404,295.596893 
	C350.548126,291.872467 349.201904,288.494080 347.897339,285.081665 
	C347.939026,285.047699 348.022278,284.979553 348.022278,284.979553 
	C350.008118,288.399353 351.993958,291.819153 354.012390,295.617981 
z"/>
<path fill="#4889AE" opacity="1.000000" stroke="none" 
	d="
M179.691559,238.899887 
	C180.466446,243.553558 178.158371,247.175262 174.583130,250.503372 
	C175.946167,246.765915 177.652069,242.917938 179.691559,238.899887 
z"/>
<path fill="#33ADDB" opacity="1.000000" stroke="none" 
	d="
M272.224792,151.919556 
	C269.962311,150.681366 267.531494,149.178711 265.077576,147.320541 
	C267.388489,148.528381 269.722473,150.091721 272.224792,151.919556 
z"/>
<path fill="#2D9BCC" opacity="1.000000" stroke="none" 
	d="
M307.006042,211.562576 
	C305.525940,210.906021 304.030182,209.886642 302.274445,208.931442 
	C302.020294,207.260544 302.026123,205.525497 302.053223,203.358292 
	C303.713135,205.684021 305.351776,208.441895 307.006042,211.562576 
z"/>
<path fill="#33ADDB" opacity="1.000000" stroke="none" 
	d="
M278.004883,159.583160 
	C276.223633,157.719513 274.417847,155.502792 272.713257,152.944244 
	C274.536407,154.811646 276.258392,157.020859 278.004883,159.583160 
z"/>
<path fill="#4889AE" opacity="1.000000" stroke="none" 
	d="
M173.998764,250.676971 
	C174.444946,251.045105 174.614685,251.582535 174.606323,252.730743 
	C173.380173,254.311432 172.332123,255.281326 171.175446,256.153564 
	C171.066803,256.055908 170.849701,255.860382 170.849701,255.860382 
	C171.807251,254.189011 172.764771,252.517639 173.998764,250.676971 
z"/>
<path fill="#2896CC" opacity="1.000000" stroke="none" 
	d="
M147.311646,354.930542 
	C149.327835,352.553253 150.669296,353.064728 151.030701,356.497742 
	C149.858505,356.201233 148.732773,355.633301 147.311646,354.930542 
z"/>
<path fill="#2D88BE" opacity="1.000000" stroke="none" 
	d="
M168.956924,263.986877 
	C168.975098,263.214508 168.993286,262.442139 169.001190,261.281494 
	C168.990891,260.893188 169.040787,260.557861 169.354614,260.338379 
	C170.093063,260.068420 170.517700,260.017914 171.106903,260.213623 
	C171.180756,261.640015 171.090073,262.820160 170.999390,264.000336 
	C170.999390,264.000336 171.000000,264.000000 170.659912,263.997009 
	C169.865540,263.991638 169.411224,263.989258 168.956924,263.986877 
z"/>
<path fill="#4889AE" opacity="1.000000" stroke="none" 
	d="
M345.059601,279.945312 
	C346.031738,281.392944 347.003845,282.840576 347.999115,284.633911 
	C348.022278,284.979553 347.939026,285.047699 347.597565,284.933716 
	C346.478455,283.230103 345.700775,281.640472 344.957428,280.024719 
	C344.991760,279.998627 345.059601,279.945312 345.059601,279.945312 
z"/>
<path fill="#33ADDB" opacity="1.000000" stroke="none" 
	d="
M331.399902,250.985107 
	C332.469940,250.048065 333.882568,249.066406 335.651550,248.076050 
	C334.586121,249.025070 333.164337,249.982788 331.399902,250.985107 
z"/>
<path fill="#4889AE" opacity="1.000000" stroke="none" 
	d="
M170.942337,259.967407 
	C170.517700,260.017914 170.093063,260.068420 169.354477,260.168884 
	C169.441956,258.844055 169.843369,257.469299 170.547241,255.977448 
	C170.849701,255.860382 171.066803,256.055908 171.110992,256.518188 
	C171.084244,257.976074 171.013290,258.971741 170.942337,259.967407 
z"/>
<path fill="#4889AE" opacity="1.000000" stroke="none" 
	d="
M170.981262,301.632019 
	C169.498703,301.565002 167.851501,301.157379 165.987732,300.449127 
	C167.452972,300.529480 169.134811,300.910461 170.981262,301.632019 
z"/>
<path fill="#2D9BCC" opacity="1.000000" stroke="none" 
	d="
M309.028748,215.602798 
	C308.392853,214.855850 307.731720,213.762558 307.073975,212.327911 
	C307.719421,213.076492 308.361450,214.166473 309.028748,215.602798 
z"/>
<path fill="#2D9BCC" opacity="1.000000" stroke="none" 
	d="
M310.977814,222.020279 
	C310.985809,221.261719 310.993805,220.503143 311.031860,219.367249 
	C311.706940,220.074783 312.351929,221.159653 313.025146,222.594879 
	C313.053345,222.945236 312.921997,223.043365 312.641052,222.935150 
	C311.899353,222.558060 311.438568,222.289169 310.977814,222.020279 
z"/>
<path fill="#4889AE" opacity="1.000000" stroke="none" 
	d="
M343.059937,278.964905 
	C343.031311,278.186035 343.002686,277.407135 342.983337,276.236084 
	C343.664459,276.973236 344.336334,278.102539 345.033936,279.588562 
	C345.059601,279.945312 344.991760,279.998627 344.721375,279.893616 
	C343.987305,279.514069 343.523621,279.239471 343.059937,278.964905 
z"/>
<path fill="#2D88BE" opacity="1.000000" stroke="none" 
	d="
M185.549545,228.069153 
	C185.439667,229.195343 185.014343,230.433594 184.267136,231.787994 
	C184.374878,230.663147 184.804489,229.422165 185.549545,228.069153 
z"/>
<path fill="#33ADDB" opacity="1.000000" stroke="none" 
	d="
M330.952271,254.633484 
	C330.712555,255.004578 330.452728,254.977432 329.800110,254.935394 
	C329.354248,254.143784 329.301117,253.367065 329.091827,252.323792 
	C329.440247,251.759888 329.944855,251.462524 330.741608,251.113312 
	C330.999908,252.119415 330.966034,253.177338 330.952271,254.633484 
z"/>
<path fill="#4889AE" opacity="1.000000" stroke="none" 
	d="
M355.813934,298.641052 
	C355.189209,298.171997 354.609589,297.383972 354.013397,296.279358 
	C354.617584,296.749207 355.238312,297.535614 355.813934,298.641052 
z"/>
<path fill="#33ADDB" opacity="1.000000" stroke="none" 
	d="
M265.035522,146.572479 
	C264.416748,146.526077 263.795441,146.104004 263.057098,145.411041 
	C263.637695,145.492371 264.335327,145.844574 265.035522,146.572479 
z"/>
<path fill="#33ADDB" opacity="1.000000" stroke="none" 
	d="
M261.945526,144.581543 
	C260.957336,144.800232 259.803894,144.678329 258.343079,144.389923 
	C259.283875,144.229263 260.532074,144.235107 261.945526,144.581543 
z"/>
<path fill="#4889AE" opacity="1.000000" stroke="none" 
	d="
M181.714432,235.979767 
	C182.048019,236.347824 182.072250,236.828339 182.127731,237.668396 
	C181.712067,238.065353 181.265152,238.102768 180.485519,238.182953 
	C180.570221,237.514557 180.987640,236.803375 181.714432,235.979767 
z"/>
<path fill="#2D9BCC" opacity="1.000000" stroke="none" 
	d="
M311.025421,218.630341 
	C310.737701,218.459702 310.448639,217.974884 310.112122,217.207733 
	C310.384491,217.388992 310.704285,217.852585 311.025421,218.630341 
z"/>
<path fill="#4889AE" opacity="1.000000" stroke="none" 
	d="
M277.540344,281.119843 
	C277.781891,281.415894 277.862640,281.862000 277.969238,282.646637 
	C277.681671,282.806976 277.368256,282.628784 276.931763,282.194397 
	C276.984528,281.703125 277.174835,281.480347 277.540344,281.119843 
z"/>
<path fill="#2D9BCC" opacity="1.000000" stroke="none" 
	d="
M300.014648,198.623444 
	C299.739197,198.460571 299.450531,197.995941 299.125427,197.254150 
	C299.393127,197.425217 299.697296,197.873444 300.014648,198.623444 
z"/>
<path fill="#4889AE" opacity="1.000000" stroke="none" 
	d="
M341.051514,271.695312 
	C340.758392,271.518250 340.440918,271.018311 340.079956,270.219513 
	C340.366669,270.404602 340.696869,270.888550 341.051514,271.695312 
z"/>
<path fill="#2D88BE" opacity="1.000000" stroke="none" 
	d="
M186.090485,227.184753 
	C186.211639,227.269028 186.258347,227.577118 186.131683,227.881012 
	C185.958328,227.876801 186.016022,227.408569 186.090485,227.184753 
z"/>
<path fill="#33ADDB" opacity="1.000000" stroke="none" 
	d="
M332.250305,258.007080 
	C332.035370,257.553009 332.017212,257.102936 331.987305,256.314758 
	C332.316345,256.438324 332.657135,256.900024 332.919312,257.685852 
	C332.840637,258.009979 332.447052,258.011108 332.250305,258.007080 
z"/>
<path fill="#2D88BE" opacity="1.000000" stroke="none" 
	d="
M183.593750,232.045807 
	C183.698532,232.475815 183.501678,233.002060 183.117279,233.741714 
	C183.050522,233.350769 183.171326,232.746399 183.593750,232.045807 
z"/>
<path fill="#2D9BCC" opacity="1.000000" stroke="none" 
	d="
M301.878723,201.733109 
	C301.612457,201.802826 301.423615,201.593811 301.185730,201.162460 
	C301.378601,201.139740 301.651764,201.311157 301.878723,201.733109 
z"/>
<path fill="#299CCE" opacity="1.000000" stroke="none" 
	d="
M198.662292,204.112488 
	C198.817154,204.309280 198.698471,204.513870 198.376221,204.793793 
	C198.071030,204.587494 198.143066,204.337860 198.662292,204.112488 
z"/>
<path fill="#2C60A5" opacity="1.000000" stroke="none" 
	d="
M364.842224,313.746918 
	C364.605133,313.809753 364.416504,313.599030 364.158539,313.174194 
	C364.430389,312.996460 364.697540,313.167542 364.842224,313.746918 
z"/>
<path fill="#2C60A5" opacity="1.000000" stroke="none" 
	d="
M363.925476,312.710449 
	C363.729309,312.789856 363.490021,312.589630 363.163086,312.144653 
	C363.376862,312.014587 363.645813,312.191559 363.925476,312.710449 
z"/>
<path fill="#33ADDB" opacity="1.000000" stroke="none" 
	d="
M297.860199,194.734818 
	C297.583130,194.806519 297.395569,194.588409 297.146362,194.145630 
	C297.337158,194.126495 297.625488,194.301193 297.860199,194.734818 
z"/>
<path fill="#2D88BE" opacity="1.000000" stroke="none" 
	d="
M182.692078,234.029541 
	C182.846497,234.223984 182.709579,234.468460 182.368347,234.831619 
	C182.027298,234.617523 182.106186,234.327271 182.692078,234.029541 
z"/>
<path fill="#2D9BCC" opacity="1.000000" stroke="none" 
	d="
M298.997986,196.682922 
	C298.769043,196.784058 298.535614,196.586975 298.226807,196.145844 
	C298.391846,196.110428 298.672577,196.271408 298.997986,196.682922 
z"/>
<path fill="#2D9BCC" opacity="1.000000" stroke="none" 
	d="
M300.866211,199.717590 
	C300.597717,199.792511 300.410706,199.588989 300.168610,199.166748 
	C300.359833,199.140930 300.637909,199.304642 300.866211,199.717590 
z"/>
<path fill="#4889AE" opacity="1.000000" stroke="none" 
	d="
M338.897949,267.872894 
	C338.615387,267.901459 338.400482,267.616058 338.082764,267.082336 
	C338.308502,267.075653 338.637054,267.317291 338.897949,267.872894 
z"/>
<path fill="#4889AE" opacity="1.000000" stroke="none" 
	d="
M340.016663,269.715210 
	C339.809052,269.769989 339.534912,269.541565 339.120361,269.082245 
	C339.303345,269.044891 339.626770,269.238464 340.016663,269.715210 
z"/>
<path fill="#4889AE" opacity="1.000000" stroke="none" 
	d="
M274.332520,283.046387 
	C274.273529,282.813995 274.510803,282.544983 274.986938,282.146484 
	C275.026825,282.347870 274.827789,282.678833 274.332520,283.046387 
z"/>
<path fill="#4889AE" opacity="1.000000" stroke="none" 
	d="
M341.812347,272.816010 
	C341.554688,272.866364 341.360840,272.620880 341.100403,272.136780 
	C341.281891,272.131348 341.562653,272.338684 341.812347,272.816010 
z"/>
<path fill="#4889AE" opacity="1.000000" stroke="none" 
	d="
M342.928955,274.898621 
	C342.641022,274.924072 342.419525,274.621887 342.090210,274.059265 
	C342.320099,274.056213 342.657745,274.313568 342.928955,274.898621 
z"/>
<path fill="#33ADDB" opacity="1.000000" stroke="none" 
	d="
M228.784729,193.842758 
	C227.780014,192.761292 226.837051,191.287125 225.827530,189.483307 
	C226.789474,190.585800 227.817978,192.017929 228.784729,193.842758 
z"/>
<path fill="#33ADDB" opacity="1.000000" stroke="none" 
	d="
M222.915436,182.078873 
	C222.277649,179.962265 221.657715,177.409119 221.106415,174.460587 
	C221.761124,176.590912 222.347214,179.116623 222.915436,182.078873 
z"/>
<path fill="#33ADDB" opacity="1.000000" stroke="none" 
	d="
M231.839447,198.825760 
	C230.813339,197.774567 229.808563,196.342941 228.729172,194.587189 
	C229.723297,195.657150 230.792038,197.051239 231.839447,198.825760 
z"/>
<path fill="#2AAADB" opacity="1.000000" stroke="none" 
	d="
M237.826752,209.155701 
	C237.185730,208.626358 236.552612,207.718628 235.858047,206.483490 
	C236.475967,207.029816 237.155304,207.903564 237.826752,209.155701 
z"/>
<path fill="#33ADDB" opacity="1.000000" stroke="none" 
	d="
M232.867142,200.890137 
	C232.569626,200.688950 232.217560,200.177979 231.826340,199.348328 
	C232.128983,199.546539 232.470795,200.063461 232.867142,200.890137 
z"/>
<path fill="#33ADDB" opacity="1.000000" stroke="none" 
	d="
M224.849976,187.016968 
	C224.561264,186.786102 224.233002,186.228668 223.876343,185.340561 
	C224.168762,185.570053 224.489578,186.130219 224.849976,187.016968 
z"/>
<path fill="#33ADDB" opacity="1.000000" stroke="none" 
	d="
M223.865143,184.837219 
	C223.601746,184.621460 223.301437,184.107254 222.996597,183.282135 
	C223.270782,183.493744 223.549500,184.016266 223.865143,184.837219 
z"/>
<path fill="#33ADDB" opacity="1.000000" stroke="none" 
	d="
M225.829559,188.961288 
	C225.689484,188.957108 225.443192,188.742172 225.164200,188.274200 
	C225.364670,188.235153 225.561966,188.478271 225.829559,188.961288 
z"/>
<path fill="#2AAADB" opacity="1.000000" stroke="none" 
	d="
M234.796494,204.257782 
	C234.638565,204.229858 234.347290,203.913025 233.979294,203.276245 
	C234.156097,203.293823 234.409607,203.631348 234.796494,204.257782 
z"/>
<path fill="#2AAADB" opacity="1.000000" stroke="none" 
	d="
M235.814331,205.928925 
	C235.675537,205.930420 235.422714,205.728592 235.129242,205.277222 
	C235.326004,205.230957 235.529892,205.463593 235.814331,205.928925 
z"/>
<path fill="#2AAADB" opacity="1.000000" stroke="none" 
	d="
M238.796494,211.218262 
	C238.644989,211.191483 238.384766,210.895950 238.073730,210.305908 
	C238.244553,210.324097 238.466171,210.636795 238.796494,211.218262 
z"/>
<path fill="#2AAADB" opacity="1.000000" stroke="none" 
	d="
M239.839508,212.928680 
	C239.601257,213.051392 239.358139,212.847809 239.176041,212.278748 
	C239.364487,212.239334 239.563690,212.469040 239.839508,212.928680 
z"/>
<path fill="#27A3D6" opacity="1.000000" stroke="none" 
	d="
M310.727844,222.186829 
	C311.438568,222.289169 311.899353,222.558060 312.574707,222.983307 
	C314.526245,227.429520 316.480682,231.649963 317.884308,236.046249 
	C318.388458,237.625397 317.565674,239.628220 317.348511,241.437683 
	C315.519318,241.065918 313.274963,241.227432 311.955902,240.200455 
	C309.850098,238.561020 308.600708,239.341476 306.359924,239.919296 
	C301.099731,241.275742 295.510071,241.318863 290.074219,242.046524 
	C287.794586,242.351700 285.585358,243.155960 283.310852,243.532578 
	C280.434723,244.008820 277.300262,245.131332 274.681824,244.440826 
	C270.741730,243.401825 267.928772,243.418076 265.932892,247.342682 
	C265.684814,247.830475 264.899536,248.045059 263.916718,248.670242 
	C260.266266,243.585114 256.715912,238.639450 253.077545,233.357727 
	C256.815857,226.123199 258.169830,226.429886 265.861511,229.708954 
	C269.697418,231.344238 274.873718,230.139679 279.402893,229.747910 
	C283.007019,229.436142 286.566528,228.483017 290.110443,227.661835 
	C291.541504,227.330231 293.042023,226.822586 294.220551,225.985977 
	C296.086334,224.661530 297.505157,222.596771 299.489777,221.581406 
	C301.475861,220.565308 303.924042,220.452362 305.706024,220.048584 
	C307.494904,220.912598 308.986389,221.632980 310.727844,222.186829 
M313.838226,236.280045 
	C313.958832,236.112457 314.079437,235.944870 314.200043,235.777283 
	C314.023346,235.883194 313.846680,235.989105 313.838226,236.280045 
z"/>
<path fill="#27A3D6" opacity="1.000000" stroke="none" 
	d="
M251.751465,226.189758 
	C251.845001,225.989075 252.023651,225.881912 252.202301,225.774719 
	C252.080383,225.944244 251.958481,226.113754 251.751465,226.189758 
z"/>
<path fill="#268CC6" opacity="1.000000" stroke="none" 
	d="
M171.106903,260.213623 
	C171.013290,258.971741 171.084244,257.976074 171.219635,256.615845 
	C172.332123,255.281326 173.380173,254.311432 174.672516,253.149017 
	C183.332779,255.473602 191.743362,258.008972 200.171265,260.485382 
	C201.265747,260.806976 202.532578,261.175598 203.578781,260.927887 
	C212.167267,258.894257 219.695251,262.347565 227.097961,265.587585 
	C228.683533,264.274139 229.998535,263.184845 231.657578,262.054932 
	C229.940598,266.063110 228.112808,270.259888 225.688766,274.078156 
	C224.868835,275.369720 222.356979,276.591461 220.937149,276.298737 
	C217.475113,275.584991 214.247223,273.806854 210.826782,272.786835 
	C209.342590,272.344238 207.616562,272.712585 206.000366,272.712585 
	C205.939468,273.157654 205.878571,273.602692 205.817657,274.047760 
	C207.023819,274.675629 208.229980,275.303528 209.436142,275.931396 
	C209.519745,276.363281 209.603348,276.795197 209.686951,277.227081 
	C208.281555,277.543518 206.760696,278.367645 205.492859,278.079285 
	C201.963791,277.276672 198.523834,276.060211 195.077866,274.919067 
	C189.632751,273.115936 184.105820,271.493958 178.824539,269.289703 
	C176.182526,268.187012 174.007248,265.966064 171.310135,264.125610 
	C171.090073,262.820160 171.180756,261.640015 171.106903,260.213623 
z"/>
<path fill="#268CC6" opacity="1.000000" stroke="none" 
	d="
M231.019318,244.351471 
	C231.000229,243.204956 231.021210,242.403214 231.072510,241.200424 
	C231.514603,242.627060 231.926376,244.454727 232.327667,246.704056 
	C231.897919,246.315887 231.478653,245.506042 231.019318,244.351471 
z"/>
<path fill="#268CC6" opacity="1.000000" stroke="none" 
	d="
M233.125870,252.921539 
	C233.543198,254.089035 233.934998,255.691620 234.307785,257.716461 
	C233.892624,256.544678 233.496475,254.950668 233.125870,252.921539 
z"/>
<path fill="#268CC6" opacity="1.000000" stroke="none" 
	d="
M232.152740,247.840088 
	C232.457397,248.393082 232.756851,249.322968 233.033188,250.625961 
	C232.722565,250.071716 232.435059,249.144333 232.152740,247.840088 
z"/>
<path fill="#2868AE" opacity="1.000000" stroke="none" 
	d="
M313.131744,343.009216 
	C311.998383,341.055176 311.156525,339.299530 310.167725,337.235229 
	C316.130920,335.222870 322.335815,333.795929 328.326935,331.744629 
	C335.647125,329.238251 342.710388,325.976624 350.044189,323.516998 
	C353.024811,322.517365 356.425232,322.769318 359.954437,322.420135 
	C359.821167,321.269958 359.682892,320.076782 359.507263,318.561066 
	C361.361938,318.807098 362.895050,319.010468 364.710632,319.107697 
	C366.326385,324.438965 367.914459,329.814941 364.025208,335.046692 
	C363.193756,336.165070 363.537598,338.157196 363.489655,338.542908 
	C357.268402,340.381012 351.611755,342.647247 345.739563,343.646423 
	C337.145660,345.108765 328.411652,345.910522 319.703796,346.419281 
	C317.679749,346.537537 315.520386,344.339752 313.131744,343.009216 
z"/>
<path fill="#27A3D6" opacity="1.000000" stroke="none" 
	d="
M228.427994,226.231873 
	C227.654480,228.452454 226.896912,230.420074 225.905792,232.994293 
	C220.659470,231.172943 215.614929,229.282104 210.473328,227.708405 
	C208.539169,227.116425 206.230362,226.694916 204.355942,227.191223 
	C200.957870,228.090912 197.838165,228.116089 195.987244,225.019760 
	C194.232544,222.084427 192.908798,218.659805 195.908157,215.428955 
	C196.338028,214.965912 196.522507,214.275070 196.906708,213.344498 
	C196.919296,212.433304 196.845734,211.867264 197.063507,210.916611 
	C197.560043,210.030426 197.765259,209.528839 197.970490,209.027252 
	C197.998810,208.856445 198.027130,208.685638 198.249237,208.116592 
	C198.644333,207.521805 198.830032,207.311508 199.000183,207.087479 
	C205.123932,205.968277 211.192520,205.177994 216.342422,209.954834 
	C217.774811,211.283447 219.119476,212.731781 220.677841,213.892273 
	C222.204605,215.029221 223.952347,215.869446 225.992767,216.847534 
	C226.382431,216.855194 226.322327,216.931198 226.224121,217.330353 
	C226.782608,220.163986 227.439285,222.598480 228.095978,225.032959 
	C228.211960,225.348282 228.327942,225.663605 228.427994,226.231873 
z"/>
<path fill="#299CCE" opacity="1.000000" stroke="none" 
	d="
M228.115326,224.632980 
	C227.439285,222.598480 226.782608,220.163986 226.177216,217.318268 
	C226.863876,219.349014 227.499268,221.791016 228.115326,224.632980 
z"/>
<path fill="#2896CC" opacity="1.000000" stroke="none" 
	d="
M229.820801,232.784637 
	C229.621048,232.669128 229.437943,232.339096 229.397369,231.891266 
	C229.722275,232.007935 229.821457,232.273499 229.820801,232.784637 
z"/>
<path fill="#2782BE" opacity="1.000000" stroke="none" 
	d="
M342.731445,279.114685 
	C343.523621,279.239471 343.987305,279.514069 344.687042,279.919739 
	C345.700775,281.640472 346.478455,283.230103 347.555878,284.967712 
	C349.201904,288.494080 350.548126,291.872467 351.995667,295.588196 
	C349.070892,295.758087 345.884216,294.909027 343.054688,295.575684 
	C338.259705,296.705475 333.698425,298.815613 329.022614,300.467468 
	C326.396851,301.395111 323.759216,302.301147 321.088531,303.086212 
	C318.591248,303.820312 315.806030,303.932983 313.568420,305.115570 
	C309.288208,307.377716 305.172882,309.049316 300.435242,306.181061 
	C299.357910,307.867645 298.426880,309.325195 297.164368,310.936432 
	C294.231384,306.992157 291.629944,302.894165 288.980225,298.437317 
	C290.712524,295.404449 292.493073,292.730469 294.546570,289.843567 
	C295.416748,294.500305 298.410675,294.669739 302.046021,293.177246 
	C309.859131,289.969513 317.543121,286.423065 325.459900,283.503204 
	C328.897064,282.235504 332.810059,282.314697 336.445374,281.505524 
	C338.495911,281.049072 340.421234,280.030090 342.731445,279.114685 
z"/>
<path fill="#2782BE" opacity="1.000000" stroke="none" 
	d="
M300.454529,282.987366 
	C300.900116,282.118256 301.682465,281.201813 302.729218,280.133820 
	C302.259521,280.968201 301.525391,281.954132 300.454529,282.987366 
z"/>
<path fill="#2782BE" opacity="1.000000" stroke="none" 
	d="
M298.075531,285.757843 
	C298.094696,285.434021 298.323090,284.928101 298.790710,284.270447 
	C298.781525,284.604370 298.533173,285.090057 298.075531,285.757843 
z"/>
<path fill="#2782BE" opacity="1.000000" stroke="none" 
	d="
M303.002441,287.001709 
	C303.002441,287.001709 302.898010,287.055420 302.949005,287.027710 
	C303.000000,287.000000 303.002441,287.001709 303.002441,287.001709 
z"/>
<path fill="#2782BE" opacity="1.000000" stroke="none" 
	d="
M302.999146,286.998779 
	C302.998260,286.997528 303.102112,286.944183 303.052277,286.972961 
	C303.002441,287.001709 303.000000,287.000000 302.999146,286.998779 
z"/>
<path fill="#2782BE" opacity="1.000000" stroke="none" 
	d="
M297.026764,286.803894 
	C297.018585,286.654755 297.228302,286.367218 297.697510,286.001099 
	C297.719574,286.170227 297.482117,286.417877 297.026764,286.803894 
z"/>
<path fill="#268CC6" opacity="1.000000" stroke="none" 
	d="
M168.768097,264.276489 
	C169.411224,263.989258 169.865540,263.991638 170.660217,263.996704 
	C170.506714,265.593658 172.305222,268.560028 168.197144,268.054871 
	C168.121185,266.812744 168.350220,265.689423 168.768097,264.276489 
z"/>
<path fill="#27A3D6" opacity="1.000000" stroke="none" 
	d="
M218.331360,208.023621 
	C217.933838,207.883591 217.688278,207.616776 217.442719,207.349945 
	C217.647964,207.189240 217.853226,207.028519 218.058502,206.867798 
	C218.200104,207.210815 218.341705,207.553818 218.331360,208.023621 
z"/>
<path fill="#299CCE" opacity="1.000000" stroke="none" 
	d="
M197.792114,209.231522 
	C197.765259,209.528839 197.560043,210.030426 197.156342,210.720184 
	C197.176468,210.417511 197.395096,209.926651 197.792114,209.231522 
z"/>
<path fill="#299CCE" opacity="1.000000" stroke="none" 
	d="
M198.824493,207.208374 
	C198.830032,207.311508 198.644333,207.521805 198.288574,207.859863 
	C198.256470,207.739655 198.428040,207.515625 198.824493,207.208374 
z"/>
<path fill="#2D88BE" opacity="1.000000" stroke="none" 
	d="
M221.925034,313.660065 
	C221.246887,314.648010 220.483307,315.300873 219.432053,316.055115 
	C218.473785,314.458496 217.803207,312.760498 217.132629,311.062500 
	C217.595901,310.733887 218.059174,310.405243 218.522446,310.076630 
	C219.628159,311.159424 220.733871,312.242218 221.925034,313.660065 
z"/>
<path fill="#2D9BCC" opacity="1.000000" stroke="none" 
	d="
M338.077393,244.477020 
	C338.097748,244.526871 337.897430,244.536591 337.897430,244.536591 
	C337.897430,244.536591 338.057068,244.427155 338.077393,244.477020 
z"/>
<path fill="#2D9BCC" opacity="1.000000" stroke="none" 
	d="
M313.754089,236.187531 
	C313.846680,235.989105 314.023346,235.883194 314.200043,235.777283 
	C314.079437,235.944870 313.958832,236.112457 313.754089,236.187531 
z"/>
</svg>